<svg t="1621416339758" class="icon" viewBox="0 0 1024 1024" version="1.1" xmlns="http://www.w3.org/2000/svg" p-id="12091" width="32" height="32"><path d="M853.333 96a117.333 117.333 0 0 1 117.334 117.333v597.334A117.333 117.333 0 0 1 853.333 928H170.667A117.333 117.333 0 0 1 53.333 810.667V213.333A117.333 117.333 0 0 1 170.667 96z m0 64H170.667c-29.44 0-53.334 23.893-53.334 53.333v597.334c0 29.44 23.894 53.333 53.334 53.333h682.666c29.44 0 53.334-23.893 53.334-53.333V693.333H576A181.333 181.333 0 0 1 394.88 520.79l-0.213-8.789A181.333 181.333 0 0 1 576 330.667h330.667V213.333a53.333 53.333 0 0 0-47.872-53.077l-5.462-0.256z m53.334 234.667H576a117.333 117.333 0 0 0-117.12 110.165l-0.213 7.168A117.333 117.333 0 0 0 576 629.333h330.667V394.667z" p-id="12092" fill="#6f74ff"></path><path d="M512 512a64 64 0 1 0 128 0 64 64 0 1 0-128 0z" p-id="12093" fill="#6f74ff"></path></svg>
